<!-- Thanks to Georg Ringer: https://github.com/georgringer/news/blob/master/Resources/Public/Icons/Extension.svg -->
<svg xmlns="http://www.w3.org/2000/svg" width="1200" height="1200" preserveAspectRatio="xMidYMid">
  <path fill="#919de1" fill-rule="evenodd" d="M600 587.503H382.498v-217.5h217.5v217.5zm-290.002 145v72.499H672.5v-72.498H309.998zm0-435v362.499H672.5v-362.5H309.998zm435.001 435v72.499H1035v-72.498H745zm0-145v72.499H1035v-72.5H745zm0-145.001v72.5H1035v-72.5H745zm0-145v72.5H1035v-72.5H745zM154.238 866.74c-7.176 7.177-15.673 10.762-25.488 10.762-9.824 0-18.318-3.585-25.488-10.762-7.179-7.17-10.761-15.665-10.761-25.489v-543.75H165v543.752c0 9.822-3.592 18.318-10.762 25.487zm942.5 0c-7.18 7.177-15.674 10.762-25.488 10.762H231.269c4.152-11.7 6.231-23.788 6.231-36.252V225.004h870v616.249c0 9.825-3.594 18.32-10.762 25.49zM165 152.504v72.5H20V841.25c0 30.213 10.567 55.887 31.72 77.03C72.862 939.435 98.536 950 128.75 950h942.5c30.204 0 55.879-10.567 77.03-31.718 21.144-21.144 31.72-46.817 31.72-77.032V152.5H165z"/>
  <!-- Thanks to fontawesome: https://fontawesome.com/icons/pencil-alt?style=solid -->
  <path transform="translate(430,390) scale(1.5)" fill="currentColor" d="M497.9 142.1l-46.1 46.1c-4.7 4.7-12.3 4.7-17 0l-111-111c-4.7-4.7-4.7-12.3 0-17l46.1-46.1c18.7-18.7 49.1-18.7 67.9 0l60.1 60.1c18.8 18.7 18.8 49.1 0 67.9zM284.2 99.8L21.6 362.4.4 483.9c-2.9 16.4 11.4 30.6 27.8 27.8l121.5-21.3 262.6-262.6c4.7-4.7 4.7-12.3 0-17l-111-111c-4.8-4.7-12.4-4.7-17.1 0zM124.1 339.9c-5.5-5.5-5.5-14.3 0-19.8l154-154c5.5-5.5 14.3-5.5 19.8 0s5.5 14.3 0 19.8l-154 154c-5.5 5.5-14.3 5.5-19.8 0zM88 424h48v36.3l-64.5 11.3-31.1-31.1L51.7 376H88v48z"></path>
</svg>